<svg width="1011" height="424" viewBox="0 0 1011 424" fill="none" xmlns="http://www.w3.org/2000/svg">
<path opacity="0.6" d="M9.65567 7.536V6.528H12.3757V18H11.2397V7.536H9.65567ZM20.2715 18L16.6715 14.08V18H15.5515V6.16H16.6715V13.168L20.1915 9.264H21.7595L17.6155 13.616L21.7915 18H20.2715Z" fill="#383874"/>
<path opacity="0.6" d="M19.3593 367.16C19.3593 365.325 19.642 363.901 20.2073 362.888C20.7727 361.875 21.786 361.368 23.2473 361.368C24.7087 361.368 25.722 361.875 26.2873 362.888C26.8527 363.901 27.1353 365.325 27.1353 367.16C27.1353 369.027 26.8527 370.472 26.2873 371.496C25.722 372.52 24.7087 373.032 23.2473 373.032C21.7753 373.032 20.7567 372.52 20.1913 371.496C19.6367 370.472 19.3593 369.027 19.3593 367.16ZM26.0313 367.16C26.0313 366.168 25.962 365.331 25.8233 364.648C25.6847 363.965 25.4127 363.416 25.0073 363C24.602 362.584 24.0153 362.376 23.2473 362.376C22.4793 362.376 21.8927 362.584 21.4873 363C21.082 363.416 20.81 363.965 20.6713 364.648C20.5327 365.331 20.4633 366.168 20.4633 367.16C20.4633 368.184 20.5327 369.043 20.6713 369.736C20.81 370.419 21.082 370.968 21.4873 371.384C21.8927 371.8 22.4793 372.008 23.2473 372.008C24.0153 372.008 24.602 371.8 25.0073 371.384C25.4127 370.968 25.6847 370.419 25.8233 369.736C25.962 369.043 26.0313 368.184 26.0313 367.16Z" fill="#383874"/>
<path opacity="0.6" d="M0.816 301.12C2.77867 299.648 4.29333 298.331 5.36 297.168C6.43733 295.995 6.976 294.848 6.976 293.728C6.976 292.992 6.78933 292.405 6.416 291.968C6.05333 291.52 5.456 291.296 4.624 291.296C3.81333 291.296 3.184 291.552 2.736 292.064C2.29867 292.565 2.05333 293.237 2 294.08H0.912C0.976 292.896 1.33867 291.979 2 291.328C2.672 290.667 3.54667 290.336 4.624 290.336C5.65867 290.336 6.496 290.629 7.136 291.216C7.776 291.792 8.096 292.613 8.096 293.68C8.096 294.971 7.55733 296.224 6.48 297.44C5.41333 298.645 4.096 299.824 2.528 300.976H8.448V301.92H0.816V301.12ZM10.6362 296.16C10.6362 294.325 10.9189 292.901 11.4842 291.888C12.0496 290.875 13.0629 290.368 14.5243 290.368C15.9856 290.368 16.9989 290.875 17.5642 291.888C18.1296 292.901 18.4122 294.325 18.4122 296.16C18.4122 298.027 18.1296 299.472 17.5642 300.496C16.9989 301.52 15.9856 302.032 14.5243 302.032C13.0522 302.032 12.0336 301.52 11.4682 300.496C10.9136 299.472 10.6362 298.027 10.6362 296.16ZM17.3082 296.16C17.3082 295.168 17.2389 294.331 17.1002 293.648C16.9616 292.965 16.6896 292.416 16.2842 292C15.8789 291.584 15.2922 291.376 14.5243 291.376C13.7562 291.376 13.1696 291.584 12.7642 292C12.3589 292.416 12.0869 292.965 11.9482 293.648C11.8096 294.331 11.7402 295.168 11.7402 296.16C11.7402 297.184 11.8096 298.043 11.9482 298.736C12.0869 299.419 12.3589 299.968 12.7642 300.384C13.1696 300.8 13.7562 301.008 14.5243 301.008C15.2922 301.008 15.8789 300.8 16.2842 300.384C16.6896 299.968 16.9616 299.419 17.1002 298.736C17.2389 298.043 17.3082 297.184 17.3082 296.16ZM20.9356 296.16C20.9356 294.325 21.2183 292.901 21.7836 291.888C22.349 290.875 23.3623 290.368 24.8236 290.368C26.285 290.368 27.2983 290.875 27.8636 291.888C28.429 292.901 28.7116 294.325 28.7116 296.16C28.7116 298.027 28.429 299.472 27.8636 300.496C27.2983 301.52 26.285 302.032 24.8236 302.032C23.3516 302.032 22.333 301.52 21.7676 300.496C21.213 299.472 20.9356 298.027 20.9356 296.16ZM27.6076 296.16C27.6076 295.168 27.5383 294.331 27.3996 293.648C27.261 292.965 26.989 292.416 26.5836 292C26.1783 291.584 25.5916 291.376 24.8236 291.376C24.0556 291.376 23.469 291.584 23.0636 292C22.6583 292.416 22.3863 292.965 22.2476 293.648C22.109 294.331 22.0396 295.168 22.0396 296.16C22.0396 297.184 22.109 298.043 22.2476 298.736C22.3863 299.419 22.6583 299.968 23.0636 300.384C23.469 300.8 24.0556 301.008 24.8236 301.008C25.5916 301.008 26.1783 300.8 26.5836 300.384C26.989 299.968 27.261 299.419 27.3996 298.736C27.5383 298.043 27.6076 297.184 27.6076 296.16Z" fill="#383874"/>
<path opacity="0.6" d="M0.544 228.28V227.432L6.368 219.592H7.696V227.304H9.408V228.28H7.696V231H6.592V228.28H0.544ZM6.64 220.824L1.84 227.304H6.64V220.824ZM11.2925 225.16C11.2925 223.325 11.5752 221.901 12.1405 220.888C12.7058 219.875 13.7192 219.368 15.1805 219.368C16.6418 219.368 17.6552 219.875 18.2205 220.888C18.7858 221.901 19.0685 223.325 19.0685 225.16C19.0685 227.027 18.7858 228.472 18.2205 229.496C17.6552 230.52 16.6418 231.032 15.1805 231.032C13.7085 231.032 12.6898 230.52 12.1245 229.496C11.5698 228.472 11.2925 227.027 11.2925 225.16ZM17.9645 225.16C17.9645 224.168 17.8952 223.331 17.7565 222.648C17.6178 221.965 17.3458 221.416 16.9405 221C16.5352 220.584 15.9485 220.376 15.1805 220.376C14.4125 220.376 13.8258 220.584 13.4205 221C13.0152 221.416 12.7432 221.965 12.6045 222.648C12.4658 223.331 12.3965 224.168 12.3965 225.16C12.3965 226.184 12.4658 227.043 12.6045 227.736C12.7432 228.419 13.0152 228.968 13.4205 229.384C13.8258 229.8 14.4125 230.008 15.1805 230.008C15.9485 230.008 16.5352 229.8 16.9405 229.384C17.3458 228.968 17.6178 228.419 17.7565 227.736C17.8952 227.043 17.9645 226.184 17.9645 225.16ZM21.5919 225.16C21.5919 223.325 21.8745 221.901 22.4399 220.888C23.0052 219.875 24.0185 219.368 25.4799 219.368C26.9412 219.368 27.9545 219.875 28.5199 220.888C29.0852 221.901 29.3679 223.325 29.3679 225.16C29.3679 227.027 29.0852 228.472 28.5199 229.496C27.9545 230.52 26.9412 231.032 25.4799 231.032C24.0079 231.032 22.9892 230.52 22.4239 229.496C21.8692 228.472 21.5919 227.027 21.5919 225.16ZM28.2639 225.16C28.2639 224.168 28.1945 223.331 28.0559 222.648C27.9172 221.965 27.6452 221.416 27.2399 221C26.8345 220.584 26.2479 220.376 25.4799 220.376C24.7119 220.376 24.1252 220.584 23.7199 221C23.3145 221.416 23.0425 221.965 22.9039 222.648C22.7652 223.331 22.6959 224.168 22.6959 225.16C22.6959 226.184 22.7652 227.043 22.9039 227.736C23.0425 228.419 23.3145 228.968 23.7199 229.384C24.1252 229.8 24.7119 230.008 25.4799 230.008C26.2479 230.008 26.8345 229.8 27.2399 229.384C27.6452 228.968 27.9172 228.419 28.0559 227.736C28.1945 227.043 28.2639 226.184 28.2639 225.16Z" fill="#383874"/>
<path opacity="0.6" d="M7.632 151.328C7.39733 149.941 6.592 149.248 5.216 149.248C4.17067 149.248 3.38667 149.653 2.864 150.464C2.34133 151.275 2.10133 152.603 2.144 154.448C2.35733 153.808 2.76267 153.307 3.36 152.944C3.968 152.571 4.66133 152.384 5.44 152.384C6.56 152.384 7.44533 152.731 8.096 153.424C8.75733 154.107 9.088 155.051 9.088 156.256C9.088 156.96 8.94933 157.6 8.672 158.176C8.40533 158.741 7.98933 159.195 7.424 159.536C6.86933 159.877 6.176 160.048 5.344 160.048C3.75467 160.048 2.656 159.541 2.048 158.528C1.45067 157.515 1.152 156.08 1.152 154.224C1.152 150.277 2.50667 148.304 5.216 148.304C6.24 148.304 7.04533 148.587 7.632 149.152C8.21867 149.707 8.56533 150.432 8.672 151.328H7.632ZM5.232 153.344C4.73067 153.344 4.256 153.445 3.808 153.648C3.36 153.851 2.992 154.16 2.704 154.576C2.42667 154.981 2.288 155.483 2.288 156.08C2.288 156.944 2.544 157.664 3.056 158.24C3.568 158.816 4.31467 159.104 5.296 159.104C6.11733 159.104 6.77333 158.853 7.264 158.352C7.75467 157.851 8 157.168 8 156.304C8 155.376 7.76 154.651 7.28 154.128C6.8 153.605 6.11733 153.344 5.232 153.344ZM11.5425 154.16C11.5425 152.325 11.8252 150.901 12.3905 149.888C12.9558 148.875 13.9692 148.368 15.4305 148.368C16.8918 148.368 17.9052 148.875 18.4705 149.888C19.0358 150.901 19.3185 152.325 19.3185 154.16C19.3185 156.027 19.0358 157.472 18.4705 158.496C17.9052 159.52 16.8918 160.032 15.4305 160.032C13.9585 160.032 12.9398 159.52 12.3745 158.496C11.8198 157.472 11.5425 156.027 11.5425 154.16ZM18.2145 154.16C18.2145 153.168 18.1452 152.331 18.0065 151.648C17.8678 150.965 17.5958 150.416 17.1905 150C16.7852 149.584 16.1985 149.376 15.4305 149.376C14.6625 149.376 14.0758 149.584 13.6705 150C13.2652 150.416 12.9932 150.965 12.8545 151.648C12.7158 152.331 12.6465 153.168 12.6465 154.16C12.6465 155.184 12.7158 156.043 12.8545 156.736C12.9932 157.419 13.2652 157.968 13.6705 158.384C14.0758 158.8 14.6625 159.008 15.4305 159.008C16.1985 159.008 16.7852 158.8 17.1905 158.384C17.5958 157.968 17.8678 157.419 18.0065 156.736C18.1452 156.043 18.2145 155.184 18.2145 154.16ZM21.8419 154.16C21.8419 152.325 22.1245 150.901 22.6899 149.888C23.2552 148.875 24.2685 148.368 25.7299 148.368C27.1912 148.368 28.2045 148.875 28.7699 149.888C29.3352 150.901 29.6179 152.325 29.6179 154.16C29.6179 156.027 29.3352 157.472 28.7699 158.496C28.2045 159.52 27.1912 160.032 25.7299 160.032C24.2579 160.032 23.2392 159.52 22.6739 158.496C22.1192 157.472 21.8419 156.027 21.8419 154.16ZM28.5139 154.16C28.5139 153.168 28.4445 152.331 28.3059 151.648C28.1672 150.965 27.8952 150.416 27.4899 150C27.0845 149.584 26.4979 149.376 25.7299 149.376C24.9619 149.376 24.3752 149.584 23.9699 150C23.5645 150.416 23.2925 150.965 23.1539 151.648C23.0152 152.331 22.9459 153.168 22.9459 154.16C22.9459 155.184 23.0152 156.043 23.1539 156.736C23.2925 157.419 23.5645 157.968 23.9699 158.384C24.3752 158.8 24.9619 159.008 25.7299 159.008C26.4979 159.008 27.0845 158.8 27.4899 158.384C27.8952 157.968 28.1672 157.419 28.3059 156.736C28.4445 156.043 28.5139 155.184 28.5139 154.16Z" fill="#383874"/>
<path opacity="0.6" d="M3.264 83.048C2.60267 82.8347 2.096 82.4987 1.744 82.04C1.40267 81.5813 1.232 81.0267 1.232 80.376C1.232 79.8 1.376 79.288 1.664 78.84C1.96267 78.3813 2.39467 78.024 2.96 77.768C3.52533 77.5013 4.20267 77.368 4.992 77.368C5.78133 77.368 6.45867 77.5013 7.024 77.768C7.58933 78.024 8.016 78.3813 8.304 78.84C8.60267 79.288 8.752 79.8 8.752 80.376C8.752 81.016 8.576 81.5707 8.224 82.04C7.88267 82.5093 7.38133 82.8453 6.72 83.048C7.44533 83.2293 8.016 83.576 8.432 84.088C8.848 84.6 9.056 85.224 9.056 85.96C9.056 86.6427 8.88533 87.24 8.544 87.752C8.21333 88.2533 7.73867 88.6427 7.12 88.92C6.512 89.1973 5.80267 89.336 4.992 89.336C4.18133 89.336 3.46667 89.1973 2.848 88.92C2.24 88.6427 1.76533 88.2533 1.424 87.752C1.09333 87.24 0.928 86.6427 0.928 85.96C0.928 85.224 1.136 84.6 1.552 84.088C1.968 83.576 2.53867 83.2293 3.264 83.048ZM7.664 80.504C7.664 79.8 7.424 79.256 6.944 78.872C6.464 78.488 5.81333 78.296 4.992 78.296C4.17067 78.296 3.52 78.488 3.04 78.872C2.56 79.2453 2.32 79.7893 2.32 80.504C2.32 81.1653 2.56533 81.6933 3.056 82.088C3.54667 82.4827 4.192 82.68 4.992 82.68C5.792 82.68 6.43733 82.4827 6.928 82.088C7.41867 81.6933 7.664 81.1653 7.664 80.504ZM4.992 83.544C4.11733 83.544 3.40267 83.7413 2.848 84.136C2.29333 84.5307 2.016 85.128 2.016 85.928C2.016 86.696 2.28267 87.2987 2.816 87.736C3.34933 88.1733 4.07467 88.392 4.992 88.392C5.89867 88.392 6.61867 88.1733 7.152 87.736C7.68533 87.288 7.952 86.6853 7.952 85.928C7.952 85.1387 7.67467 84.5467 7.12 84.152C6.576 83.7467 5.86667 83.544 4.992 83.544ZM11.4644 83.16C11.4644 81.3253 11.747 79.9013 12.3124 78.888C12.8777 77.8747 13.891 77.368 15.3524 77.368C16.8137 77.368 17.827 77.8747 18.3924 78.888C18.9577 79.9013 19.2404 81.3253 19.2404 83.16C19.2404 85.0267 18.9577 86.472 18.3924 87.496C17.827 88.52 16.8137 89.032 15.3524 89.032C13.8804 89.032 12.8617 88.52 12.2964 87.496C11.7417 86.472 11.4644 85.0267 11.4644 83.16ZM18.1364 83.16C18.1364 82.168 18.067 81.3307 17.9284 80.648C17.7897 79.9653 17.5177 79.416 17.1124 79C16.707 78.584 16.1204 78.376 15.3524 78.376C14.5844 78.376 13.9977 78.584 13.5924 79C13.187 79.416 12.915 79.9653 12.7764 80.648C12.6377 81.3307 12.5684 82.168 12.5684 83.16C12.5684 84.184 12.6377 85.0427 12.7764 85.736C12.915 86.4187 13.187 86.968 13.5924 87.384C13.9977 87.8 14.5844 88.008 15.3524 88.008C16.1204 88.008 16.707 87.8 17.1124 87.384C17.5177 86.968 17.7897 86.4187 17.9284 85.736C18.067 85.0427 18.1364 84.184 18.1364 83.16ZM21.7637 83.16C21.7637 81.3253 22.0464 79.9013 22.6117 78.888C23.1771 77.8747 24.1904 77.368 25.6517 77.368C27.1131 77.368 28.1264 77.8747 28.6917 78.888C29.2571 79.9013 29.5397 81.3253 29.5397 83.16C29.5397 85.0267 29.2571 86.472 28.6917 87.496C28.1264 88.52 27.1131 89.032 25.6517 89.032C24.1797 89.032 23.1611 88.52 22.5957 87.496C22.0411 86.472 21.7637 85.0267 21.7637 83.16ZM28.4357 83.16C28.4357 82.168 28.3664 81.3307 28.2277 80.648C28.0891 79.9653 27.8171 79.416 27.4117 79C27.0064 78.584 26.4197 78.376 25.6517 78.376C24.8837 78.376 24.2971 78.584 23.8917 79C23.4864 79.416 23.2144 79.9653 23.0757 80.648C22.9371 81.3307 22.8677 82.168 22.8677 83.16C22.8677 84.184 22.9371 85.0427 23.0757 85.736C23.2144 86.4187 23.4864 86.968 23.8917 87.384C24.2971 87.8 24.8837 88.008 25.6517 88.008C26.4197 88.008 27.0064 87.8 27.4117 87.384C27.8171 86.968 28.0891 86.4187 28.2277 85.736C28.3664 85.0427 28.4357 84.184 28.4357 83.16Z" fill="#383874"/>
<g clip-path="url(#clip0_2394_4793)">
<path opacity="0.6" d="M985.002 403.608C986.24 403.608 987.301 403.832 988.186 404.28C989.072 404.728 989.749 405.373 990.218 406.216C990.688 407.059 990.922 408.061 990.922 409.224C990.922 410.376 990.688 411.373 990.218 412.216C989.749 413.048 989.072 413.688 988.186 414.136C987.301 414.573 986.24 414.792 985.002 414.792H981.69V403.608H985.002ZM985.002 413.864C986.56 413.864 987.744 413.459 988.554 412.648C989.376 411.827 989.786 410.685 989.786 409.224C989.786 407.752 989.376 406.605 988.554 405.784C987.744 404.952 986.56 404.536 985.002 404.536H982.81V413.864H985.002ZM1001.33 409.976C1001.33 410.36 1001.32 410.653 1001.3 410.856H994.051C994.083 411.517 994.243 412.083 994.531 412.552C994.819 413.021 995.198 413.379 995.667 413.624C996.137 413.859 996.649 413.976 997.203 413.976C997.929 413.976 998.537 413.8 999.027 413.448C999.529 413.096 999.859 412.621 1000.02 412.024H1001.2C1000.99 412.877 1000.53 413.576 999.827 414.12C999.134 414.653 998.259 414.92 997.203 414.92C996.382 414.92 995.646 414.739 994.995 414.376C994.345 414.003 993.833 413.48 993.459 412.808C993.097 412.125 992.915 411.331 992.915 410.424C992.915 409.517 993.097 408.723 993.459 408.04C993.822 407.357 994.329 406.835 994.979 406.472C995.63 406.109 996.371 405.928 997.203 405.928C998.035 405.928 998.761 406.109 999.379 406.472C1000.01 406.835 1000.49 407.325 1000.82 407.944C1001.16 408.552 1001.33 409.229 1001.33 409.976ZM1000.2 409.944C1000.21 409.293 1000.07 408.739 999.795 408.28C999.529 407.821 999.161 407.475 998.691 407.24C998.222 407.005 997.71 406.888 997.155 406.888C996.323 406.888 995.614 407.155 995.027 407.688C994.441 408.221 994.115 408.973 994.051 409.944H1000.2ZM1003.31 410.424C1003.31 409.517 1003.49 408.728 1003.85 408.056C1004.22 407.373 1004.72 406.851 1005.36 406.488C1006 406.115 1006.73 405.928 1007.55 405.928C1008.63 405.928 1009.51 406.195 1010.2 406.728C1010.91 407.261 1011.36 407.987 1011.56 408.904H1010.36C1010.22 408.275 1009.89 407.784 1009.39 407.432C1008.9 407.069 1008.28 406.888 1007.55 406.888C1006.96 406.888 1006.43 407.021 1005.96 407.288C1005.5 407.555 1005.12 407.955 1004.84 408.488C1004.58 409.011 1004.44 409.656 1004.44 410.424C1004.44 411.192 1004.58 411.843 1004.84 412.376C1005.12 412.909 1005.5 413.309 1005.96 413.576C1006.43 413.843 1006.96 413.976 1007.55 413.976C1008.28 413.976 1008.9 413.8 1009.39 413.448C1009.89 413.085 1010.22 412.584 1010.36 411.944H1011.56C1011.36 412.84 1010.91 413.56 1010.2 414.104C1009.5 414.648 1008.62 414.92 1007.55 414.92C1006.73 414.92 1006 414.739 1005.36 414.376C1004.72 414.003 1004.22 413.48 1003.85 412.808C1003.49 412.125 1003.31 411.331 1003.31 410.424Z" fill="#383874"/>
<path fill-rule="evenodd" clip-rule="evenodd" d="M994.921 384.2V0H996.066V384.2H994.921Z" fill="#F1F1F5"/>
</g>
<g clip-path="url(#clip1_2394_4793)">
<path opacity="0.6" d="M905.291 414.792H904.171L897.979 405.384V414.792H896.859V403.608H897.979L904.171 413V403.608H905.291V414.792ZM912.092 414.92C911.27 414.92 910.529 414.739 909.868 414.376C909.217 414.003 908.7 413.48 908.316 412.808C907.942 412.125 907.756 411.331 907.756 410.424C907.756 409.517 907.948 408.728 908.332 408.056C908.716 407.373 909.238 406.851 909.9 406.488C910.561 406.115 911.302 405.928 912.124 405.928C912.945 405.928 913.686 406.115 914.348 406.488C915.02 406.851 915.542 407.373 915.916 408.056C916.3 408.728 916.492 409.517 916.492 410.424C916.492 411.32 916.3 412.109 915.916 412.792C915.532 413.475 915.004 414.003 914.332 414.376C913.66 414.739 912.913 414.92 912.092 414.92ZM912.092 413.944C912.668 413.944 913.201 413.816 913.692 413.56C914.182 413.293 914.577 412.899 914.876 412.376C915.185 411.843 915.34 411.192 915.34 410.424C915.34 409.656 915.19 409.011 914.892 408.488C914.593 407.955 914.198 407.56 913.708 407.304C913.217 407.037 912.684 406.904 912.108 406.904C911.532 406.904 910.998 407.037 910.508 407.304C910.017 407.56 909.622 407.955 909.324 408.488C909.036 409.011 908.892 409.656 908.892 410.424C908.892 411.192 909.036 411.843 909.324 412.376C909.622 412.899 910.012 413.293 910.492 413.56C910.982 413.816 911.516 413.944 912.092 413.944ZM922.077 413.704L925.021 406.056H926.205L922.701 414.792H921.437L917.933 406.056H919.133L922.077 413.704Z" fill="#383874"/>
<path fill-rule="evenodd" clip-rule="evenodd" d="M909.049 384.2V0H910.194V384.2H909.049Z" fill="#F1F1F5"/>
</g>
<g clip-path="url(#clip2_2394_4793)">
<path opacity="0.6" d="M817.294 414.904C816.259 414.904 815.32 414.664 814.478 414.184C813.635 413.693 812.968 413.016 812.478 412.152C811.998 411.277 811.758 410.291 811.758 409.192C811.758 408.093 811.998 407.112 812.478 406.248C812.968 405.373 813.635 404.696 814.478 404.216C815.32 403.725 816.259 403.48 817.294 403.48C818.339 403.48 819.283 403.725 820.126 404.216C820.968 404.696 821.63 405.373 822.11 406.248C822.59 407.112 822.83 408.093 822.83 409.192C822.83 410.291 822.59 411.277 822.11 412.152C821.63 413.016 820.968 413.693 820.126 414.184C819.283 414.664 818.339 414.904 817.294 414.904ZM817.294 413.928C818.126 413.928 818.872 413.736 819.534 413.352C820.195 412.968 820.718 412.419 821.102 411.704C821.486 410.979 821.678 410.141 821.678 409.192C821.678 408.243 821.486 407.411 821.102 406.696C820.718 405.981 820.195 405.432 819.534 405.048C818.872 404.664 818.126 404.472 817.294 404.472C816.462 404.472 815.715 404.664 815.054 405.048C814.392 405.432 813.87 405.981 813.486 406.696C813.102 407.411 812.91 408.243 812.91 409.192C812.91 410.141 813.102 410.979 813.486 411.704C813.87 412.419 814.392 412.968 815.054 413.352C815.715 413.736 816.462 413.928 817.294 413.928ZM824.807 410.424C824.807 409.517 824.988 408.728 825.351 408.056C825.714 407.373 826.215 406.851 826.855 406.488C827.495 406.115 828.226 405.928 829.047 405.928C830.124 405.928 831.01 406.195 831.703 406.728C832.407 407.261 832.86 407.987 833.063 408.904H831.863C831.714 408.275 831.388 407.784 830.887 407.432C830.396 407.069 829.783 406.888 829.047 406.888C828.46 406.888 827.932 407.021 827.463 407.288C826.994 407.555 826.62 407.955 826.343 408.488C826.076 409.011 825.943 409.656 825.943 410.424C825.943 411.192 826.076 411.843 826.343 412.376C826.62 412.909 826.994 413.309 827.463 413.576C827.932 413.843 828.46 413.976 829.047 413.976C829.783 413.976 830.396 413.8 830.887 413.448C831.388 413.085 831.714 412.584 831.863 411.944H833.063C832.86 412.84 832.407 413.56 831.703 414.104C830.999 414.648 830.114 414.92 829.047 414.92C828.226 414.92 827.495 414.739 826.855 414.376C826.215 414.003 825.714 413.48 825.351 412.808C824.988 412.125 824.807 411.331 824.807 410.424ZM837.028 407V412.424C837.028 412.957 837.129 413.325 837.332 413.528C837.534 413.731 837.892 413.832 838.404 413.832H839.428V414.792H838.228C837.438 414.792 836.852 414.611 836.468 414.248C836.084 413.875 835.892 413.267 835.892 412.424V407H834.676V406.056H835.892V403.864H837.028V406.056H839.428V407H837.028Z" fill="#383874"/>
<path fill-rule="evenodd" clip-rule="evenodd" d="M824.322 384.2V0H825.467V384.2H824.322Z" fill="#F1F1F5"/>
</g>
<g clip-path="url(#clip3_2394_4793)">
<path opacity="0.6" d="M731.55 414.904C730.814 414.904 730.163 414.776 729.598 414.52C729.043 414.264 728.606 413.907 728.286 413.448C727.966 412.989 727.795 412.477 727.774 411.912H728.958C729.011 412.456 729.251 412.936 729.678 413.352C730.105 413.757 730.729 413.96 731.55 413.96C732.307 413.96 732.905 413.768 733.342 413.384C733.79 412.989 734.014 412.493 734.014 411.896C734.014 411.416 733.891 411.032 733.646 410.744C733.401 410.445 733.097 410.227 732.734 410.088C732.371 409.939 731.87 409.779 731.23 409.608C730.483 409.405 729.891 409.208 729.454 409.016C729.017 408.824 728.643 408.525 728.334 408.12C728.025 407.715 727.87 407.165 727.87 406.472C727.87 405.896 728.019 405.384 728.318 404.936C728.617 404.477 729.038 404.12 729.582 403.864C730.126 403.608 730.75 403.48 731.454 403.48C732.489 403.48 733.321 403.736 733.95 404.248C734.59 404.749 734.958 405.4 735.054 406.2H733.838C733.763 405.741 733.513 405.336 733.086 404.984C732.659 404.621 732.083 404.44 731.358 404.44C730.686 404.44 730.126 404.621 729.678 404.984C729.23 405.336 729.006 405.821 729.006 406.44C729.006 406.909 729.129 407.288 729.374 407.576C729.619 407.864 729.923 408.083 730.286 408.232C730.659 408.381 731.161 408.541 731.79 408.712C732.515 408.915 733.102 409.117 733.55 409.32C733.998 409.512 734.377 409.811 734.686 410.216C734.995 410.621 735.15 411.165 735.15 411.848C735.15 412.371 735.011 412.867 734.734 413.336C734.457 413.805 734.046 414.184 733.502 414.472C732.958 414.76 732.307 414.904 731.55 414.904ZM745.658 409.976C745.658 410.36 745.648 410.653 745.626 410.856H738.378C738.41 411.517 738.57 412.083 738.858 412.552C739.146 413.021 739.525 413.379 739.994 413.624C740.464 413.859 740.976 413.976 741.53 413.976C742.256 413.976 742.864 413.8 743.354 413.448C743.856 413.096 744.186 412.621 744.346 412.024H745.53C745.317 412.877 744.858 413.576 744.154 414.12C743.461 414.653 742.586 414.92 741.53 414.92C740.709 414.92 739.973 414.739 739.322 414.376C738.672 414.003 738.16 413.48 737.786 412.808C737.424 412.125 737.242 411.331 737.242 410.424C737.242 409.517 737.424 408.723 737.786 408.04C738.149 407.357 738.656 406.835 739.306 406.472C739.957 406.109 740.698 405.928 741.53 405.928C742.362 405.928 743.088 406.109 743.706 406.472C744.336 406.835 744.816 407.325 745.146 407.944C745.488 408.552 745.658 409.229 745.658 409.976ZM744.522 409.944C744.533 409.293 744.4 408.739 744.122 408.28C743.856 407.821 743.488 407.475 743.018 407.24C742.549 407.005 742.037 406.888 741.482 406.888C740.65 406.888 739.941 407.155 739.354 407.688C738.768 408.221 738.442 408.973 738.378 409.944H744.522ZM749.251 407.976C749.529 407.389 749.966 406.904 750.563 406.52C751.171 406.125 751.891 405.928 752.723 405.928C753.513 405.928 754.222 406.115 754.851 406.488C755.491 406.851 755.987 407.373 756.339 408.056C756.702 408.728 756.883 409.512 756.883 410.408C756.883 411.304 756.702 412.093 756.339 412.776C755.987 413.459 755.491 413.987 754.851 414.36C754.222 414.733 753.513 414.92 752.723 414.92C751.902 414.92 751.187 414.728 750.579 414.344C749.971 413.949 749.529 413.459 749.251 412.872V418.92H748.147V406.056H749.251V407.976ZM755.747 410.408C755.747 409.683 755.603 409.059 755.315 408.536C755.038 408.003 754.654 407.597 754.163 407.32C753.673 407.043 753.118 406.904 752.499 406.904C751.902 406.904 751.353 407.048 750.851 407.336C750.361 407.624 749.971 408.035 749.683 408.568C749.395 409.101 749.251 409.72 749.251 410.424C749.251 411.128 749.395 411.747 749.683 412.28C749.971 412.813 750.361 413.224 750.851 413.512C751.353 413.8 751.902 413.944 752.499 413.944C753.118 413.944 753.673 413.805 754.163 413.528C754.654 413.24 755.038 412.829 755.315 412.296C755.603 411.752 755.747 411.123 755.747 410.408Z" fill="#383874"/>
<path fill-rule="evenodd" clip-rule="evenodd" d="M740.74 384.2V0H741.885V384.2H740.74Z" fill="#F1F1F5"/>
</g>
<g clip-path="url(#clip4_2394_4793)">
<path opacity="0.6" d="M649.615 412.136H644.527L643.551 414.792H642.367L646.447 403.752H647.711L651.775 414.792H650.591L649.615 412.136ZM649.279 411.208L647.071 405.16L644.863 411.208H649.279ZM661.581 406.056V414.792H660.461V413.256C660.205 413.8 659.81 414.216 659.277 414.504C658.743 414.792 658.146 414.936 657.485 414.936C656.439 414.936 655.586 414.616 654.925 413.976C654.263 413.325 653.933 412.387 653.933 411.16V406.056H655.037V411.032C655.037 411.981 655.271 412.707 655.741 413.208C656.221 413.709 656.871 413.96 657.693 413.96C658.535 413.96 659.207 413.693 659.709 413.16C660.21 412.627 660.461 411.843 660.461 410.808V406.056H661.581ZM668.242 405.928C669.063 405.928 669.778 406.12 670.386 406.504C670.994 406.888 671.431 407.373 671.698 407.96V406.056H672.818V415.016C672.818 415.816 672.642 416.525 672.29 417.144C671.948 417.763 671.468 418.237 670.85 418.568C670.231 418.909 669.527 419.08 668.738 419.08C667.618 419.08 666.684 418.813 665.938 418.28C665.202 417.747 664.743 417.021 664.562 416.104H665.666C665.858 416.712 666.22 417.197 666.754 417.56C667.298 417.923 667.959 418.104 668.738 418.104C669.303 418.104 669.81 417.981 670.258 417.736C670.706 417.501 671.058 417.149 671.314 416.68C671.57 416.211 671.698 415.656 671.698 415.016V412.856C671.42 413.453 670.978 413.949 670.37 414.344C669.772 414.728 669.063 414.92 668.242 414.92C667.442 414.92 666.722 414.733 666.082 414.36C665.452 413.987 664.956 413.459 664.594 412.776C664.242 412.093 664.066 411.304 664.066 410.408C664.066 409.512 664.242 408.728 664.594 408.056C664.956 407.373 665.452 406.851 666.082 406.488C666.722 406.115 667.442 405.928 668.242 405.928ZM671.698 410.424C671.698 409.72 671.554 409.101 671.266 408.568C670.978 408.035 670.583 407.624 670.082 407.336C669.591 407.048 669.047 406.904 668.45 406.904C667.831 406.904 667.276 407.043 666.786 407.32C666.295 407.597 665.906 408.003 665.618 408.536C665.34 409.059 665.202 409.683 665.202 410.408C665.202 411.123 665.34 411.752 665.618 412.296C665.906 412.829 666.295 413.24 666.786 413.528C667.276 413.805 667.831 413.944 668.45 413.944C669.047 413.944 669.591 413.8 670.082 413.512C670.583 413.224 670.978 412.813 671.266 412.28C671.554 411.747 671.698 411.128 671.698 410.424Z" fill="#383874"/>
<path fill-rule="evenodd" clip-rule="evenodd" d="M656.012 384.2V0H657.157V384.2H656.012Z" fill="#F1F1F5"/>
</g>
<g clip-path="url(#clip5_2394_4793)">
<path opacity="0.6" d="M569.369 403.608V412.072C569.369 412.925 569.108 413.613 568.585 414.136C568.062 414.648 567.364 414.904 566.489 414.904C565.582 414.904 564.857 414.632 564.313 414.088C563.78 413.533 563.513 412.787 563.513 411.848H564.649C564.66 412.456 564.809 412.952 565.097 413.336C565.396 413.72 565.86 413.912 566.489 413.912C567.086 413.912 567.529 413.736 567.817 413.384C568.105 413.032 568.249 412.595 568.249 412.072V403.608H569.369ZM580.193 406.056V414.792H579.073V413.256C578.817 413.8 578.423 414.216 577.889 414.504C577.356 414.792 576.759 414.936 576.097 414.936C575.052 414.936 574.199 414.616 573.537 413.976C572.876 413.325 572.545 412.387 572.545 411.16V406.056H573.649V411.032C573.649 411.981 573.884 412.707 574.353 413.208C574.833 413.709 575.484 413.96 576.305 413.96C577.148 413.96 577.82 413.693 578.321 413.16C578.823 412.627 579.073 411.843 579.073 410.808V406.056H580.193ZM584.31 402.952V414.792H583.19V402.952H584.31Z" fill="#383874"/>
<path fill-rule="evenodd" clip-rule="evenodd" d="M572.43 384.2V0H573.575V384.2H572.43Z" fill="#F1F1F5"/>
</g>
<g clip-path="url(#clip6_2394_4793)">
<path opacity="0.6" d="M482.914 403.608V412.072C482.914 412.925 482.652 413.613 482.13 414.136C481.607 414.648 480.908 414.904 480.034 414.904C479.127 414.904 478.402 414.632 477.858 414.088C477.324 413.533 477.058 412.787 477.058 411.848H478.194C478.204 412.456 478.354 412.952 478.642 413.336C478.94 413.72 479.404 413.912 480.034 413.912C480.631 413.912 481.074 413.736 481.362 413.384C481.65 413.032 481.794 412.595 481.794 412.072V403.608H482.914ZM493.738 406.056V414.792H492.618V413.256C492.362 413.8 491.967 414.216 491.434 414.504C490.901 414.792 490.303 414.936 489.642 414.936C488.597 414.936 487.743 414.616 487.082 413.976C486.421 413.325 486.09 412.387 486.09 411.16V406.056H487.194V411.032C487.194 411.981 487.429 412.707 487.898 413.208C488.378 413.709 489.029 413.96 489.85 413.96C490.693 413.96 491.365 413.693 491.866 413.16C492.367 412.627 492.618 411.843 492.618 410.808V406.056H493.738ZM500.831 405.896C501.876 405.896 502.73 406.221 503.391 406.872C504.052 407.512 504.383 408.445 504.383 409.672V414.792H503.279V409.8C503.279 408.851 503.039 408.125 502.559 407.624C502.09 407.123 501.444 406.872 500.623 406.872C499.78 406.872 499.108 407.139 498.607 407.672C498.106 408.205 497.855 408.989 497.855 410.024V414.792H496.735V406.056H497.855V407.544C498.132 407.011 498.532 406.605 499.055 406.328C499.578 406.04 500.17 405.896 500.831 405.896Z" fill="#383874"/>
<path fill-rule="evenodd" clip-rule="evenodd" d="M492.283 384.2V0H493.428V384.2H492.283Z" fill="#F1F1F5"/>
</g>
<g clip-path="url(#clip7_2394_4793)">
<path opacity="0.6" d="M400.194 403.752V414.792H399.074V405.976L395.138 414.792H394.322L390.386 406.008V414.792H389.266V403.752H390.45L394.722 413.32L398.994 403.752H400.194ZM402.663 410.408C402.663 409.512 402.839 408.728 403.191 408.056C403.553 407.373 404.049 406.851 404.679 406.488C405.319 406.115 406.039 405.928 406.839 405.928C407.671 405.928 408.385 406.12 408.983 406.504C409.591 406.888 410.028 407.379 410.295 407.976V406.056H411.415V414.792H410.295V412.856C410.017 413.453 409.575 413.949 408.967 414.344C408.369 414.728 407.655 414.92 406.823 414.92C406.033 414.92 405.319 414.733 404.679 414.36C404.049 413.987 403.553 413.459 403.191 412.776C402.839 412.093 402.663 411.304 402.663 410.408ZM410.295 410.424C410.295 409.72 410.151 409.101 409.863 408.568C409.575 408.035 409.18 407.624 408.679 407.336C408.188 407.048 407.644 406.904 407.047 406.904C406.428 406.904 405.873 407.043 405.383 407.32C404.892 407.597 404.503 408.003 404.215 408.536C403.937 409.059 403.799 409.683 403.799 410.408C403.799 411.123 403.937 411.752 404.215 412.296C404.503 412.829 404.892 413.24 405.383 413.528C405.873 413.805 406.428 413.944 407.047 413.944C407.644 413.944 408.188 413.8 408.679 413.512C409.18 413.224 409.575 412.813 409.863 412.28C410.151 411.747 410.295 411.128 410.295 410.424ZM421.612 406.056L416.428 418.904H415.26L416.956 414.744L413.372 406.056H414.604L417.58 413.512L420.46 406.056H421.612Z" fill="#383874"/>
<path fill-rule="evenodd" clip-rule="evenodd" d="M406.474 384.2V0H407.593V384.2H406.474Z" fill="#F1F1F5"/>
</g>
<g clip-path="url(#clip8_2394_4793)">
<path opacity="0.6" d="M312.129 412.136H307.041L306.065 414.792H304.881L308.961 403.752H310.225L314.289 414.792H313.105L312.129 412.136ZM311.793 411.208L309.585 405.16L307.377 411.208H311.793ZM317.63 407.976C317.907 407.389 318.345 406.904 318.942 406.52C319.55 406.125 320.27 405.928 321.102 405.928C321.891 405.928 322.601 406.115 323.23 406.488C323.87 406.851 324.366 407.373 324.718 408.056C325.081 408.728 325.262 409.512 325.262 410.408C325.262 411.304 325.081 412.093 324.718 412.776C324.366 413.459 323.87 413.987 323.23 414.36C322.601 414.733 321.891 414.92 321.102 414.92C320.281 414.92 319.566 414.728 318.958 414.344C318.35 413.949 317.907 413.459 317.63 412.872V418.92H316.526V406.056H317.63V407.976ZM324.126 410.408C324.126 409.683 323.982 409.059 323.694 408.536C323.417 408.003 323.033 407.597 322.542 407.32C322.051 407.043 321.497 406.904 320.878 406.904C320.281 406.904 319.731 407.048 319.23 407.336C318.739 407.624 318.35 408.035 318.062 408.568C317.774 409.101 317.63 409.72 317.63 410.424C317.63 411.128 317.774 411.747 318.062 412.28C318.35 412.813 318.739 413.224 319.23 413.512C319.731 413.8 320.281 413.944 320.878 413.944C321.497 413.944 322.051 413.805 322.542 413.528C323.033 413.24 323.417 412.829 323.694 412.296C323.982 411.752 324.126 411.123 324.126 410.408ZM328.883 407.608C329.128 407.064 329.502 406.643 330.003 406.344C330.515 406.045 331.139 405.896 331.875 405.896V407.064H331.571C330.76 407.064 330.11 407.283 329.619 407.72C329.128 408.157 328.883 408.888 328.883 409.912V414.792H327.763V406.056H328.883V407.608Z" fill="#383874"/>
<path fill-rule="evenodd" clip-rule="evenodd" d="M320.602 384.2V0H321.721V384.2H320.602Z" fill="#F1F1F5"/>
</g>
<g clip-path="url(#clip9_2394_4793)">
<path opacity="0.6" d="M231.699 403.752V414.792H230.579V405.976L226.643 414.792H225.827L221.891 406.008V414.792H220.771V403.752H221.955L226.227 413.32L230.499 403.752H231.699ZM234.168 410.408C234.168 409.512 234.344 408.728 234.696 408.056C235.058 407.373 235.554 406.851 236.184 406.488C236.824 406.115 237.544 405.928 238.344 405.928C239.176 405.928 239.89 406.12 240.488 406.504C241.096 406.888 241.533 407.379 241.8 407.976V406.056H242.92V414.792H241.8V412.856C241.522 413.453 241.08 413.949 240.472 414.344C239.874 414.728 239.16 414.92 238.328 414.92C237.538 414.92 236.824 414.733 236.184 414.36C235.554 413.987 235.058 413.459 234.696 412.776C234.344 412.093 234.168 411.304 234.168 410.408ZM241.8 410.424C241.8 409.72 241.656 409.101 241.368 408.568C241.08 408.035 240.685 407.624 240.184 407.336C239.693 407.048 239.149 406.904 238.552 406.904C237.933 406.904 237.378 407.043 236.888 407.32C236.397 407.597 236.008 408.003 235.72 408.536C235.442 409.059 235.304 409.683 235.304 410.408C235.304 411.123 235.442 411.752 235.72 412.296C236.008 412.829 236.397 413.24 236.888 413.528C237.378 413.805 237.933 413.944 238.552 413.944C239.149 413.944 239.693 413.8 240.184 413.512C240.685 413.224 241.08 412.813 241.368 412.28C241.656 411.747 241.8 411.128 241.8 410.424ZM247.037 407.608C247.282 407.064 247.655 406.643 248.157 406.344C248.669 406.045 249.293 405.896 250.029 405.896V407.064H249.725C248.914 407.064 248.263 407.283 247.773 407.72C247.282 408.157 247.037 408.888 247.037 409.912V414.792H245.917V406.056H247.037V407.608Z" fill="#383874"/>
<path fill-rule="evenodd" clip-rule="evenodd" d="M234.73 384.2V0H235.849V384.2H234.73Z" fill="#F1F1F5"/>
</g>
<g clip-path="url(#clip10_2394_4793)">
<path opacity="0.6" d="M141.297 403.608V404.536H136.369V408.712H140.529V409.64H136.369V414.792H135.249V403.608H141.297ZM151.484 409.976C151.484 410.36 151.473 410.653 151.452 410.856H144.204C144.236 411.517 144.396 412.083 144.684 412.552C144.972 413.021 145.35 413.379 145.82 413.624C146.289 413.859 146.801 413.976 147.356 413.976C148.081 413.976 148.689 413.8 149.18 413.448C149.681 413.096 150.012 412.621 150.172 412.024H151.356C151.142 412.877 150.684 413.576 149.98 414.12C149.286 414.653 148.412 414.92 147.356 414.92C146.534 414.92 145.798 414.739 145.148 414.376C144.497 414.003 143.985 413.48 143.612 412.808C143.249 412.125 143.068 411.331 143.068 410.424C143.068 409.517 143.249 408.723 143.612 408.04C143.974 407.357 144.481 406.835 145.132 406.472C145.782 406.109 146.524 405.928 147.356 405.928C148.188 405.928 148.913 406.109 149.532 406.472C150.161 406.835 150.641 407.325 150.972 407.944C151.313 408.552 151.484 409.229 151.484 409.976ZM150.348 409.944C150.358 409.293 150.225 408.739 149.948 408.28C149.681 407.821 149.313 407.475 148.844 407.24C148.374 407.005 147.862 406.888 147.308 406.888C146.476 406.888 145.766 407.155 145.18 407.688C144.593 408.221 144.268 408.973 144.204 409.944H150.348ZM155.077 407.992C155.365 407.384 155.807 406.888 156.405 406.504C157.013 406.12 157.727 405.928 158.549 405.928C159.349 405.928 160.063 406.115 160.693 406.488C161.322 406.851 161.813 407.373 162.165 408.056C162.527 408.728 162.709 409.512 162.709 410.408C162.709 411.304 162.527 412.093 162.165 412.776C161.813 413.459 161.317 413.987 160.677 414.36C160.047 414.733 159.338 414.92 158.549 414.92C157.717 414.92 156.997 414.733 156.389 414.36C155.791 413.976 155.354 413.48 155.077 412.872V414.792H153.973V402.952H155.077V407.992ZM161.573 410.408C161.573 409.683 161.429 409.059 161.141 408.536C160.863 408.003 160.479 407.597 159.989 407.32C159.498 407.043 158.943 406.904 158.325 406.904C157.727 406.904 157.178 407.048 156.677 407.336C156.186 407.624 155.797 408.035 155.509 408.568C155.221 409.101 155.077 409.72 155.077 410.424C155.077 411.128 155.221 411.747 155.509 412.28C155.797 412.813 156.186 413.224 156.677 413.512C157.178 413.8 157.727 413.944 158.325 413.944C158.943 413.944 159.498 413.805 159.989 413.528C160.479 413.24 160.863 412.829 161.141 412.296C161.429 411.752 161.573 411.123 161.573 410.408Z" fill="#383874"/>
<path fill-rule="evenodd" clip-rule="evenodd" d="M151.148 384.2V0H152.267V384.2H151.148Z" fill="#F1F1F5"/>
</g>
<g clip-path="url(#clip11_2394_4793)">
<path opacity="0.6" d="M55.5569 403.608V412.072C55.5569 412.925 55.2956 413.613 54.7729 414.136C54.2502 414.648 53.5516 414.904 52.6769 414.904C51.7702 414.904 51.0449 414.632 50.5009 414.088C49.9676 413.533 49.7009 412.787 49.7009 411.848H50.8369C50.8476 412.456 50.9969 412.952 51.2849 413.336C51.5836 413.72 52.0476 413.912 52.6769 413.912C53.2742 413.912 53.7169 413.736 54.0049 413.384C54.2929 413.032 54.4369 412.595 54.4369 412.072V403.608H55.5569ZM58.3013 410.408C58.3013 409.512 58.4773 408.728 58.8293 408.056C59.192 407.373 59.688 406.851 60.3173 406.488C60.9573 406.115 61.6773 405.928 62.4773 405.928C63.3093 405.928 64.024 406.12 64.6213 406.504C65.2293 406.888 65.6666 407.379 65.9333 407.976V406.056H67.0533V414.792H65.9333V412.856C65.656 413.453 65.2133 413.949 64.6053 414.344C64.008 414.728 63.2933 414.92 62.4613 414.92C61.672 414.92 60.9573 414.733 60.3173 414.36C59.688 413.987 59.192 413.459 58.8293 412.776C58.4773 412.093 58.3013 411.304 58.3013 410.408ZM65.9333 410.424C65.9333 409.72 65.7893 409.101 65.5013 408.568C65.2133 408.035 64.8186 407.624 64.3173 407.336C63.8266 407.048 63.2826 406.904 62.6853 406.904C62.0666 406.904 61.512 407.043 61.0213 407.32C60.5306 407.597 60.1413 408.003 59.8533 408.536C59.576 409.059 59.4373 409.683 59.4373 410.408C59.4373 411.123 59.576 411.752 59.8533 412.296C60.1413 412.829 60.5306 413.24 61.0213 413.528C61.512 413.805 62.0666 413.944 62.6853 413.944C63.2826 413.944 63.8266 413.8 64.3173 413.512C64.8186 413.224 65.2133 412.813 65.5013 412.28C65.7893 411.747 65.9333 411.128 65.9333 410.424ZM74.1462 405.896C75.1915 405.896 76.0448 406.221 76.7062 406.872C77.3675 407.512 77.6982 408.445 77.6982 409.672V414.792H76.5942V409.8C76.5942 408.851 76.3542 408.125 75.8742 407.624C75.4048 407.123 74.7595 406.872 73.9382 406.872C73.0955 406.872 72.4235 407.139 71.9222 407.672C71.4208 408.205 71.1702 408.989 71.1702 410.024V414.792H70.0502V406.056H71.1702V407.544C71.4475 407.011 71.8475 406.605 72.3702 406.328C72.8928 406.04 73.4848 405.896 74.1462 405.896Z" fill="#383874"/>
<path fill-rule="evenodd" clip-rule="evenodd" d="M65.2757 384.2V0H66.3946V384.2H65.2757Z" fill="#F1F1F5"/>
</g>
<defs>
<clipPath id="clip0_2394_4793">
<rect width="29.769" height="423.077" fill="white" transform="translate(981.231)"/>
</clipPath>
<clipPath id="clip1_2394_4793">
<rect width="29.7689" height="423.077" fill="white" transform="translate(895.359)"/>
</clipPath>
<clipPath id="clip2_2394_4793">
<rect width="26.334" height="423.077" fill="white" transform="translate(812.922)"/>
</clipPath>
<clipPath id="clip3_2394_4793">
<rect width="28.624" height="423.077" fill="white" transform="translate(728.195)"/>
</clipPath>
<clipPath id="clip4_2394_4793">
<rect width="29.769" height="423.077" fill="white" transform="translate(642.323)"/>
</clipPath>
<clipPath id="clip5_2394_4793">
<rect width="24.0441" height="423.077" fill="white" transform="translate(562.176)"/>
</clipPath>
<clipPath id="clip6_2394_4793">
<rect width="28.624" height="423.077" fill="white" transform="translate(477.448)"/>
</clipPath>
<clipPath id="clip7_2394_4793">
<rect width="32.0588" height="423.077" fill="white" transform="translate(389.286)"/>
</clipPath>
<clipPath id="clip8_2394_4793">
<rect width="27.4791" height="423.077" fill="white" transform="translate(305.704)"/>
</clipPath>
<clipPath id="clip9_2394_4793">
<rect width="29.7689" height="423.077" fill="white" transform="translate(219.832)"/>
</clipPath>
<clipPath id="clip10_2394_4793">
<rect width="28.624" height="423.077" fill="white" transform="translate(135.105)"/>
</clipPath>
<clipPath id="clip11_2394_4793">
<rect width="28.624" height="423.077" fill="white" transform="translate(50.3782)"/>
</clipPath>
</defs>
</svg>
